<svg width="48" height="48" viewBox="0 0 48 48" fill="none" xmlns="http://www.w3.org/2000/svg">
<g id="Group 357">
<g id="Mask group">
<mask id="mask0_3_16779" style="mask-type:alpha" maskUnits="userSpaceOnUse" x="2" y="2" width="44" height="44">
<rect id="Rectangle 94" x="2" y="2" width="44" height="44" fill="#D9D9D9"/>
</mask>
<g mask="url(#mask0_3_16779)">
<g id="Group 351">
<path id="Vector" d="M46 53.7718L39.9045 57.289C39.6101 57.459 39.2851 57.5693 38.948 57.6136C38.6109 57.658 38.2683 57.6354 37.9399 57.5474C37.6116 57.4594 37.3038 57.3075 37.0341 57.1005C36.7645 56.8935 36.5384 56.6354 36.3686 56.341C36.3402 56.291 36.3134 56.241 36.2893 56.191L19.2059 34.7437L19.1335 34.5368C19.0572 34.3187 19.0343 34.0855 19.0666 33.8567C19.099 33.6279 19.1857 33.4102 19.3196 33.2218C19.4534 33.0334 19.6304 32.8797 19.8359 32.7737C20.0413 32.6676 20.2692 32.6123 20.5004 32.6123H20.5866L34.2126 33.544C34.3713 33.5543 34.5076 33.4207 34.5886 33.2854L34.6111 33.2337L34.6895 33.1096L41.1895 24.9487L35.2104 22.1907C34.9424 22.0673 34.7185 21.8649 34.5688 21.6107L31.5944 16.5938L24.0578 9.06204L24.2303 9.41885C24.3377 9.63955 24.3873 9.88392 24.3743 10.129C24.3613 10.3741 24.2861 10.6118 24.1559 10.82C24.0257 11.028 23.8447 11.1997 23.6299 11.3187C23.4152 11.4377 23.1736 11.5001 22.928 11.5002H14.1393C13.9929 11.4999 13.8475 11.4773 13.7081 11.433L5.76702 8.92674L10.2291 17.2704C10.3417 17.4804 10.4009 17.7148 10.4016 17.953V17.9952L9.53142 44.2345C9.52023 44.5698 9.37902 44.8877 9.13762 45.1209C8.89623 45.3541 8.57356 45.4843 8.23781 45.4842H8.19469C7.85185 45.4729 7.52752 45.326 7.29302 45.0759C7.05852 44.8257 6.93304 44.4926 6.9442 44.15L7.80661 18.221L2.17079 7.68307C2.0352 7.42939 1.97832 7.14109 2.00742 6.85496C2.03652 6.56883 2.15027 6.29787 2.33416 6.07664C2.51805 5.85541 2.76373 5.69396 3.03985 5.6129C3.31596 5.53183 3.60999 5.53483 3.88439 5.62151L14.3195 8.91553H21.1118L18.7592 4.08913C18.6061 3.78088 18.568 3.42817 18.6518 3.09438C18.7355 2.76059 18.9357 2.4676 19.2162 2.26803C19.4967 2.06846 19.8393 1.9754 20.1823 2.00557C20.5253 2.03574 20.8463 2.18717 21.0877 2.43264L33.5926 14.9296L33.7142 15.0856L36.6248 19.9982L43.5999 23.2155C43.7991 23.3074 43.9747 23.4434 44.1137 23.613C44.2526 23.7827 44.3511 23.9817 44.4019 24.195C44.4526 24.4083 44.4542 24.6304 44.4066 24.8444C44.359 25.0584 44.2633 25.2588 44.1269 25.4304L36.8447 34.573C36.2488 35.6167 35.1889 36.2106 34.0453 36.1339L23.0246 35.3806L37.0448 52.9892C37.0448 52.9892 39.3733 57.595 46 53.7718Z" fill="url(#paint0_linear_3_16779)"/>
<path id="Line 29 (Stroke)" fill-rule="evenodd" clip-rule="evenodd" d="M29.8216 20.9509C30.03 21.2872 29.753 21.7142 29.361 21.661L23.9337 20.9243C23.7017 20.8928 23.5287 20.6948 23.5287 20.4607L23.5287 19.4163C23.5287 19.1537 23.7448 18.9425 24.0074 18.9486L28.3938 19.0503C28.5519 19.0539 28.6974 19.1371 28.7806 19.2715L29.8216 20.9509Z" fill="#FA8E40"/>
</g>
</g>
</g>
</g>
<defs>
<linearGradient id="paint0_linear_3_16779" x1="2" y1="24.0163" x2="46" y2="23.9887" gradientUnits="userSpaceOnUse">
<stop offset="0.01" stop-color="#F25029"/>
<stop offset="0.515625" stop-color="#F99B26"/>
<stop offset="1" stop-color="#F7B927"/>
</linearGradient>
</defs>
</svg>
